# xmcd CD database file
#
# Track frame offsets:
#	187
#	15585
#	29465
#	43072
#	61112
#	76402
#	90637
#	109437
#	122477
#	139247
#	156702
#
# Disc length: 2280 seconds
#
# Revision: 2
# Processed by: cddbd v1.5.1PL2 Copyright (c) Steve Scherf et al.
# Submitted via: CDex 1.51
#
DISCID=9208e60b
DTITLE=Lee Greenwood - Greatest Hits - Volume Two
DYEAR=1900
DGENRE=
TTITLE0=I Don't Mind the Thorns (When You're the Rose)
TTITLE1=Don't Underestimate my Love for You
TTITLE2=Hearts Aren't Made to Break (They're Made to Love)
TTITLE3=Didn't We
TTITLE4=Mornin' Ride
TTITLE5=Someone
TTITLE6=If There's any Justice
TTITLE7=Touch and go Crazy
TTITLE8=I Still Believe
TTITLE9=You Can't Fall In Love When You're Cryin'
TTITLE10=God Bless The USA
EXTD=
EXTT0=
EXTT1=
EXTT2=
EXTT3=
EXTT4=
EXTT5=
EXTT6=
EXTT7=
EXTT8=
EXTT9=
EXTT10=
PLAYORDER=
